<?xml version="1.0" encoding="UTF-8"?>
<svg xmlns="http://www.w3.org/2000/svg" width="256" height="256" viewBox="0 0 256 256">
  <defs>
    <linearGradient id="bgGrad" x1="0%" y1="0%" x2="100%" y2="100%">
      <stop offset="0%" stop-color="#3b4fa8"/>
      <stop offset="50%" stop-color="#6b3094"/>
      <stop offset="100%" stop-color="#e25d6e"/>
    </linearGradient>
    <filter id="shadow" x="-10%" y="-10%" width="120%" height="125%">
      <feDropShadow dx="0" dy="4" stdDeviation="6" flood-opacity="0.25"/>
    </filter>
  </defs>
  <!-- Rounded Squircle Background -->
  <rect x="16" y="16" width="224" height="224" rx="54" ry="54" fill="url(#bgGrad)"/>
  
  <g filter="url(#shadow)" fill="#ffffff">
    <!-- Crescent Moon -->
    <path d="M 126 52 C 84 52 50 86 50 128 C 50 170 84 204 126 204 C 158 204 185 184 196 155 C 160 167 118 152 102 116 C 92 92 98 66 114 53 C 118 52 122 52 126 52 Z"/>
    
    <!-- Notification Bell -->
    <path d="M 160 76 C 143.4 76 130 89.4 130 106 C 130 114.5 133.5 122.2 139.2 127.8 L 132 146 L 188 146 L 180.8 127.8 C 186.5 122.2 190 114.5 190 106 C 190 89.4 176.6 76 160 76 Z M 150 152 C 150 157.5 154.5 162 160 162 C 165.5 162 170 157.5 170 152 L 150 152 Z"/>
  </g>
</svg>
